<?xml version="1.0" encoding="utf-8"?>
<!-- Generator: Adobe Illustrator 24.3.0, SVG Export Plug-In . SVG Version: 6.00 Build 0)  -->
<svg version="1.1" id="Layer_1" xmlns="http://www.w3.org/2000/svg" xmlns:xlink="http://www.w3.org/1999/xlink" x="0px" y="0px"
	 viewBox="0 0 976.88 750.67" style="enable-background:new 0 0 976.88 750.67;" xml:space="preserve">
<style type="text/css">
	.st0{fill:#F1F9FE;}
	.st1{fill-rule:evenodd;clip-rule:evenodd;fill:#F1F9FE;}
	.st2{fill-rule:evenodd;clip-rule:evenodd;fill:#00CCFF;}
</style>
<g>
	<path class="st0" d="M840.6,501.43l-92.91,92.73c-0.68,0.68-0.2,1.83,0.76,1.83h88.93c2.91,0,5.27,2.36,5.27,5.27v7.75
		c0,2.91-2.36,5.27-5.27,5.27H725.43c-2.91,0-5.27-2.36-5.27-5.27v-9.05c0-2.54,1.01-4.98,2.81-6.77l91.41-91.47
		c0.68-0.68,0.2-1.83-0.76-1.83h-88.69c-2.91,0-5.27-2.36-5.27-5.27v-7.75c0-2.91,2.36-5.27,5.27-5.27h111.94
		c2.91,0,5.27,2.36,5.27,5.27v10.83C842.15,499.1,841.59,500.45,840.6,501.43L840.6,501.43z M699.87,485.56
		c-5.9,0.09-11.15-4.13-12.3-9.92c-1.52-7.66,4.36-14.78,12.1-14.78c6.91,0,12.35,5.68,12.35,12.36S706.69,485.46,699.87,485.56
		L699.87,485.56z M708.81,502.78v109.36c0,1.18-0.96,2.15-2.15,2.15h-13.98c-1.18,0-2.15-0.96-2.15-2.15V502.78
		c0-1.18,0.96-2.15,2.15-2.15h13.98C707.84,500.63,708.81,501.59,708.81,502.78z M614.27,462.58h14.27c1.1,0,2,0.9,2,2v83.24
		c0,26.54,20.95,48.13,47.23,49.36c1.07,0.05,1.91,0.93,1.91,2v14.31c0,1.13-0.94,2.04-2.07,2c-36.32-1.1-65.34-31.05-65.34-67.67
		v-83.24C612.26,463.48,613.16,462.58,614.27,462.58L614.27,462.58L614.27,462.58z M601.4,547.35c0,36.76-29.11,67.31-65.83,68.15
		c-38.38,0.88-69.85-30.45-69.23-68.8c0.55-34.38,27.25-62.98,61.47-66.06c21.66-1.95,41.66,6.49,55.31,20.97v-36.6
		c0-1.48,1.2-2.68,2.68-2.68h12.9c1.48,0,2.68,1.2,2.68,2.68L601.4,547.35L601.4,547.35z M534.98,498.66
		c-28.82-0.57-52.36,23.64-50.23,52.81c1.77,24.3,21.31,43.86,45.6,45.63c29.15,2.12,53.34-21.43,52.78-50.27
		C582.61,520.59,561.21,499.18,534.98,498.66L534.98,498.66L534.98,498.66z M381.96,593.21c-1.26,1.26-0.53,3.43,1.24,3.65
		c1.77,0.22,3.57,0.37,5.35,0.37c23.23,0,42.73-16.26,47.95-38.2c0.29-1.21,1.37-2.08,2.61-2.08h13.21c1.69,0,2.94,1.53,2.64,3.19
		c-5.94,32.41-34.99,56.67-69.16,55.31c-35.55-1.42-64.12-30.55-64.89-66.14c-0.83-38,29.85-68.96,67.64-68.96
		c27.02,0,50.53,15.83,61.19,38.99c1.14,2.47,0.64,5.38-1.28,7.3l-66.51,66.55L381.96,593.21L381.96,593.21z M362.18,587.31
		L428,521.45c0.76-0.76,0.84-1.96,0.2-2.81c-9-12.01-23.53-19.98-39.65-19.98c-27.16,0-49.38,21.99-49.38,49.17
		c0,16.38,7.98,30.71,20.22,39.7C360.24,588.15,361.43,588.06,362.18,587.31L362.18,587.31L362.18,587.31z M291.76,609.99v-86.49
		c0-7.16-3.42-13.93-9.25-18.08c-24.81-17.66-51.49-0.41-51.49,23.14v80.36c0,2.96-2.4,5.37-5.37,5.37h-7.54
		c-2.96,0-5.37-2.41-5.37-5.37v-85.07c0-6.75-3.01-13.19-8.3-17.38c-24.48-19.37-52.19-1.92-52.19,22.08v82.51
		c0,1.78-1.44,3.22-3.22,3.22h-8.61c-3.56,0-6.44-2.88-6.44-6.44V528.3c0-26.93,21.73-48.43,48.4-48.43
		c16.3,0,30.62,7.91,39.51,20.26c13.7-19.05,40.31-27.52,67.17-12.76c12.97,7.13,20.98,20.81,20.98,35.62v84.85
		c0,3.56-2.88,6.44-6.44,6.44h-7.54C293.68,614.28,291.76,612.35,291.76,609.99L291.76,609.99L291.76,609.99z"/>
	<g id="Icon">
		<path class="st1" d="M547.28,249.84c-0.17-0.36-0.09-0.79,0.19-1.07c0.28-0.28,0.71-0.36,1.07-0.19c0,0,0,0,0,0
			c2.18,1,5.15,2.26,6.6,2.79c1.45,0.54,3.83,1.28,5.28,1.64s4.27,0.96,6.27,1.32c2,0.36,4.97,1.1,6.6,1.64
			c1.63,0.54,3.94,1.51,5.12,2.16s3.19,1.95,4.46,2.92c1.27,0.96,3.43,2.92,4.8,4.34c1.36,1.42,3.22,3.78,4.12,5.23
			c0.9,1.45,2.21,3.98,2.92,5.61c0.7,1.63,2.24,5.87,3.41,9.41c1.18,3.54,2.72,8.81,3.43,11.72c0.71,2.9,1.3,5.8,1.31,6.44
			c0.01,0.95-0.32,1.54-1.88,3.3c-1.04,1.18-2.65,2.79-3.56,3.57c-0.92,0.79-2.86,2.15-4.31,3.03c-1.45,0.88-3.61,2.05-4.79,2.58
			c-1.18,0.54-3.86,1.52-5.94,2.18c-2.09,0.66-6.62,1.72-10.07,2.34s-7.16,1.38-8.25,1.68c-1.09,0.3-3.32,1.09-4.95,1.75
			c-1.63,0.67-3.86,1.82-4.95,2.55c-1.09,0.74-2.96,2.29-4.15,3.45c-1.19,1.16-3.04,3.45-4.11,5.08c-1.07,1.63-2.72,4.6-3.67,6.6
			c-0.99,2.07-3.21,8.11-5.17,14.03c-1.92,5.82-4.17,11.93-5.1,13.87c-0.92,1.91-2.55,4.65-3.64,6.11c-1.09,1.45-3.08,3.66-4.42,4.9
			c-1.34,1.25-3.63,3.06-5.08,4.02c-1.45,0.97-4.2,2.5-6.11,3.41c-1.91,0.91-4.88,2.03-6.6,2.49c-1.72,0.46-4.4,0.99-5.94,1.18
			c-1.54,0.19-4.74,0.34-7.1,0.34c-2.36,0-5.26-0.15-6.44-0.34c-1.18-0.19-3.78-0.86-5.78-1.49c-2-0.63-5.04-1.86-6.77-2.72
			c-1.72-0.86-4.25-2.3-5.61-3.2c-1.36-0.9-3.68-2.83-5.16-4.28c-1.48-1.46-3.5-3.91-4.5-5.45c-1-1.54-2.45-4.07-3.22-5.61
			c-0.77-1.54-3.4-7.86-5.85-14.03c-2.44-6.17-5.06-12.41-5.81-13.87c-1.09-2.12-2.12-3.4-5.17-6.47c-2.27-2.29-4.87-4.52-6.44-5.55
			c-1.45-0.95-3.83-2.31-5.28-3.02c-1.45-0.72-3.98-1.61-5.61-1.97c-1.85-0.42-5.2-0.78-8.91-0.97c-3.27-0.17-7.57-0.59-9.57-0.94
			c-2-0.35-4.89-0.98-6.44-1.39c-1.54-0.41-4.29-1.33-6.11-2.05c-1.82-0.72-4.19-1.76-5.28-2.31c-1.09-0.55-3.24-1.86-4.79-2.91
			c-1.54-1.05-3.66-2.82-4.7-3.92c-1.37-1.45-1.9-2.26-1.89-2.91c0-0.5,0.29-2.47,0.64-4.37c0.35-1.91,1.08-5.17,1.62-7.26
			c0.54-2.09,1.65-5.8,2.47-8.25c0.82-2.45,2.07-5.79,2.77-7.43c0.71-1.63,1.89-4.01,2.63-5.28c0.74-1.27,2.23-3.5,3.31-4.95
			c1.08-1.45,2.92-3.51,4.08-4.57c1.16-1.06,3.3-2.72,4.75-3.68c1.45-0.97,3.53-2.16,4.62-2.65c1.09-0.49,3.32-1.31,4.95-1.83
			c1.63-0.52,4.75-1.34,6.93-1.82c2.18-0.49,5.23-1.33,6.77-1.87c1.54-0.54,6.22-2.62,10.4-4.62h0c0.31-0.15,0.68-0.12,0.97,0.07
			c0.29,0.19,0.45,0.53,0.42,0.87c-0.16,2.66-0.01,5.34,0.48,7.98c0.1,0.56,0.22,1.12,0.35,1.67c0.13,0.54,0.27,1.08,0.43,1.61
			c0.88,2.99,2.22,5.89,4.01,8.59c0.11,0.17,0.22,0.33,0.34,0.5c-5.92,5.11-2.42,13.79-0.71,18.01c0.27,0.67,0.5,1.24,0.62,1.62
			l0.45-0.15c0.64,1.72,1.4,3.79,2.2,6.02c0.39,1.09,0.8,2.22,1.21,3.36c1.15,3.17,2.34,6.44,3.42,9.32c1.4,3.7,2.62,6.74,3.36,8.07
			c0.17,0.31,0.36,0.6,0.57,0.86c0.75,0.96,1.72,1.57,2.9,1.84c1.86,0.43,3.84-0.16,5.19-0.75c0.89,0.49,2.44,0.57,3.47,0.32
			c1.05-0.26,4.09-2.91,4.09-2.91c0.87-0.66,1.05-1.88,0.42-2.72l-1.59-2.09c-0.64-0.84-1.86-0.99-2.73-0.33c0,0-3.37,2.2-3.76,3.21
			c-0.4,1.03-0.71,1.88-0.78,2.6c-1.04,0.45-2.49,0.88-3.77,0.58c-0.68-0.16-1.25-0.51-1.71-1.08c-0.15-0.18-0.29-0.39-0.41-0.62
			c-0.75-1.35-2.02-4.52-3.45-8.36c-1.09-2.9-2.27-6.18-3.41-9.33c-0.41-1.15-0.82-2.27-1.21-3.36l-1.8,1.37l1.8-1.37
			c-0.71-1.97-1.38-3.81-1.96-5.36l0.43-0.15l0,0c-0.16-0.49-0.41-1.11-0.7-1.83c-1.58-3.92-4.53-11.22,0.17-14.82
			c4.73-3.56,10.97,1.23,14.33,3.8c0.62,0.47,1.15,0.88,1.57,1.16l0,0l0.28-0.41c2.79,2.02,6.68,4.76,10.48,7.47l0.63,0.45
			c2.68,1.91,5.28,3.79,7.39,5.37c0.21,0.16,0.42,0.31,0.61,0.46c1.68,1.27,2.98,2.32,3.66,2.99c0.76,0.75,1.11,1.57,1.07,2.5
			c-0.04,0.94-0.47,1.86-0.97,2.64l0,0c-0.2,0.3-0.4,0.58-0.6,0.83c-0.71-0.13-1.62-0.06-2.72,0.05c-1.07,0.11-4.1,2.77-4.1,2.77
			c-0.87,0.66-1.05,1.88-0.42,2.72l1.59,2.09c0.64,0.84,1.86,0.99,2.73,0.33c0,0,3.37-2.22,3.9-3.16c0.51-0.92,0.85-2.44,0.62-3.43
			c0.7-0.87,1.51-2.09,1.89-3.46l-2.96,2.25l2.96-2.25c0.1-0.35,0.17-0.72,0.2-1.09l-3.09,2.35l3.09-2.35
			c0.01-0.08,0.01-0.17,0.02-0.25c0.07-1.53-0.5-2.9-1.68-4.06c-0.65-0.64-1.86-1.62-3.41-2.81l-1.78,1.35l1.78-1.35
			c-0.2-0.15-0.4-0.31-0.61-0.47l-1.78,1.35l1.78-1.35c-2.08-1.57-4.68-3.45-7.38-5.38l-0.63-0.45c-4-2.85-8.13-5.76-11.05-7.89
			l0.24-0.35c-0.33-0.22-0.83-0.6-1.4-1.04c-3.4-2.61-10.15-7.79-16.35-4.81c-0.15-0.22-0.3-0.43-0.44-0.65
			c-1.79-2.73-3.07-5.67-3.86-8.7c-0.14-0.55-0.27-1.1-0.38-1.65c-0.11-0.57-0.21-1.14-0.29-1.72c-0.37-2.62-0.39-5.28-0.08-7.91
			c0.1-0.78,0.59-1.46,1.3-1.8c1.25-0.59,2.51-1.18,3.71-1.75c1.43-0.67,3.14-0.28,4.15,0.94c10.74,13.1,27.05,21.46,45.3,21.46
			c18.37,0,34.78-8.48,45.52-21.73c1-1.24,2.72-1.63,4.16-0.96c0.05,0.02,0.1,0.05,0.15,0.07c0.83,0.39,1.73,0.81,2.64,1.24
			c0.36,0.17,0.66,0.42,0.89,0.74c6.78,9.46,7.54,21.66,2.9,31.99l1.88,2.38C551.2,270.59,551.61,259.45,547.28,249.84
			L547.28,249.84z M538.78,286.59c-5.08-4.98-13.38-5.41-19.32-0.71c-6.43,5.08-7.68,14.22-2.79,20.41
			c4.87,6.17,13.99,7.09,20.42,2.09l0.17-0.13c6.09-4.88,7.46-13.43,3.28-19.56c1.85-1.99,3.45-4.15,4.78-6.42l-0.01-0.03
			c0.1-0.17,0.2-0.34,0.3-0.52l-1.83-2.32c-0.08,0.15-0.16,0.31-0.24,0.46c-0.2,0.38-0.41,0.75-0.63,1.13l-0.01,0.02l0.02,0.02l0,0
			l-0.02-0.02c-0.1,0.17-0.2,0.33-0.3,0.5c-0.55,0.9-1.14,1.77-1.78,2.63C540.16,284.98,539.49,285.8,538.78,286.59L538.78,286.59z
			 M543.77,279.4l1.83,2.32c0.08-0.14,0.16-0.29,0.24-0.44c0.22-0.4,0.43-0.8,0.63-1.2l-1.88-2.38
			C544.33,278.27,544.06,278.84,543.77,279.4L543.77,279.4z M451.73,216.53c-0.46,0.34-1.1,0.26-1.46-0.19
			c-6.49-7.89-10.61-17.83-11.28-28.71c-0.04-0.63,0.45-1.16,1.07-1.16h19.08c0.56,0,1.04,0.46,1.07,1.03
			c0.32,7.27,1.8,14.3,4.33,20.81c0.21,0.55-0.05,1.17-0.59,1.39C459.61,211.5,455.5,213.78,451.73,216.53L451.73,216.53z
			 M454.65,149.6c-0.52-0.36-0.57-1.12-0.11-1.55c7.07-6.69,16.1-11.3,26.12-12.88c1-0.16,1.57,1.11,0.79,1.75
			c-2.23,1.85-4.35,3.91-6.33,6.18c-3.19,3.66-5.91,7.72-8.12,12.07c-0.23,0.46-0.77,0.67-1.25,0.48
			C461.76,154.03,458.04,151.99,454.65,149.6L454.65,149.6z M486.33,165.29v15.84c0,0.75-0.6,1.36-1.34,1.36h-19.46
			c-0.77,0-1.39-0.65-1.34-1.43c0.36-6.69,1.77-13.06,4.05-18.89c0.25-0.65,0.96-1,1.63-0.81c4.87,1.45,9.97,2.32,15.2,2.58
			C485.77,163.97,486.33,164.57,486.33,165.29L486.33,165.29z M440.06,182.48c-0.62,0-1.11-0.53-1.07-1.16
			c0.67-10.88,4.79-20.82,11.28-28.71c0.36-0.44,1-0.52,1.46-0.19c3.77,2.75,7.88,5.03,12.23,6.83c0.54,0.22,0.8,0.84,0.59,1.39
			c-2.54,6.51-4.01,13.54-4.33,20.81c-0.03,0.56-0.51,1.03-1.07,1.03L440.06,182.48L440.06,182.48z M526.35,216.34
			c-0.36,0.44-1,0.52-1.46,0.19c-3.77-2.75-7.88-5.03-12.23-6.83c-0.54-0.22-0.8-0.84-0.59-1.39c2.54-6.51,4.01-13.54,4.33-20.81
			c0.03-0.56,0.51-1.03,1.07-1.03h19.08c0.62,0,1.11,0.53,1.07,1.16C536.96,198.52,532.84,208.46,526.35,216.34L526.35,216.34z
			 M512.08,160.65c-0.21-0.55,0.05-1.17,0.59-1.39c4.35-1.8,8.45-4.09,12.23-6.83c0.46-0.34,1.1-0.26,1.46,0.19
			c6.49,7.89,10.61,17.83,11.28,28.71c0.04,0.63-0.45,1.16-1.07,1.16h-19.08c-0.56,0-1.04-0.46-1.07-1.03
			C516.09,174.19,514.61,167.16,512.08,160.65L512.08,160.65z M491.31,159.95c-0.56,0.03-1.03-0.43-1.03-1V140.2
			c0-0.83,0.95-1.3,1.6-0.78c5.57,4.41,10.28,10.15,13.8,16.82c0.3,0.56,0,1.26-0.6,1.43C500.71,158.93,496.09,159.72,491.31,159.95
			L491.31,159.95z M510.87,213.31c3.98,1.62,7.71,3.66,11.1,6.06c0.52,0.36,0.57,1.12,0.11,1.55c-7.07,6.69-16.1,11.3-26.12,12.88
			c-1,0.16-1.57-1.11-0.79-1.75c2.23-1.85,4.35-3.91,6.33-6.18c3.19-3.66,5.91-7.72,8.12-12.07
			C509.86,213.33,510.4,213.11,510.87,213.31L510.87,213.31z M491.63,182.48c-0.74,0-1.34-0.61-1.34-1.36v-15.84
			c0-0.72,0.56-1.32,1.28-1.35c5.23-0.26,10.33-1.13,15.2-2.58c0.67-0.2,1.37,0.15,1.63,0.81c2.27,5.83,3.68,12.2,4.04,18.89
			c0.04,0.78-0.57,1.43-1.34,1.43H491.63L491.63,182.48z M495.18,136.92c-0.78-0.64-0.21-1.91,0.79-1.75
			c10.02,1.57,19.04,6.19,26.12,12.88c0.46,0.44,0.41,1.19-0.11,1.55c-3.39,2.39-7.12,4.43-11.1,6.06
			c-0.47,0.19-1.01-0.02-1.25-0.48c-2.21-4.35-4.92-8.41-8.12-12.07C499.53,140.83,497.41,138.77,495.18,136.92L495.18,136.92z
			 M470.93,156.23c3.51-6.67,8.23-12.41,13.8-16.82c0.65-0.51,1.6-0.05,1.6,0.78v18.75c0,0.57-0.47,1.02-1.03,1
			c-4.78-0.23-9.39-1.02-13.77-2.28C470.93,157.49,470.64,156.8,470.93,156.23L470.93,156.23z M486.33,228.76
			c0,0.83-0.95,1.3-1.6,0.78c-5.57-4.41-10.28-10.15-13.8-16.82c-0.3-0.56,0-1.26,0.6-1.43c4.37-1.26,8.99-2.05,13.77-2.28
			c0.56-0.03,1.03,0.43,1.03,1L486.33,228.76L486.33,228.76z M475.11,225.86c1.98,2.27,4.1,4.34,6.33,6.18
			c0.78,0.64,0.21,1.91-0.79,1.75c-10.02-1.57-19.04-6.19-26.12-12.88c-0.46-0.44-0.41-1.19,0.11-1.55
			c3.39-2.39,7.12-4.43,11.1-6.06c0.47-0.19,1.01,0.02,1.25,0.48C469.2,218.14,471.92,222.2,475.11,225.86L475.11,225.86z
			 M486.33,187.84v15.84c0,0.72-0.56,1.32-1.27,1.35c-5.23,0.26-10.33,1.13-15.2,2.58c-0.67,0.2-1.37-0.15-1.63-0.81
			c-2.27-5.83-3.68-12.2-4.05-18.89c-0.04-0.78,0.57-1.43,1.34-1.43h19.46C485.73,186.48,486.33,187.09,486.33,187.84L486.33,187.84
			z M491.56,205.03c-0.71-0.04-1.28-0.63-1.28-1.35v-15.84c0-0.75,0.6-1.36,1.34-1.36h19.46c0.77,0,1.39,0.65,1.34,1.43
			c-0.36,6.69-1.77,13.06-4.04,18.89c-0.25,0.65-0.96,1-1.63,0.81C501.89,206.16,496.79,205.28,491.56,205.03L491.56,205.03z
			 M490.29,228.76v-18.75c0-0.57,0.47-1.02,1.03-1c4.78,0.23,9.39,1.02,13.77,2.28c0.61,0.18,0.9,0.87,0.6,1.43
			c-3.51,6.67-8.23,12.41-13.8,16.82C491.24,230.06,490.29,229.6,490.29,228.76L490.29,228.76z"/>
		<path class="st2" d="M708.98,211.74c5.51,8.16,10.24,16.88,14.07,25.92c7.96,18.82,11.99,38.79,11.99,59.39
			c0,20.59-4.03,40.57-11.99,59.39c-3.83,9.04-8.56,17.76-14.07,25.92c-2.78,4.11-5.77,8.1-8.94,11.93c-0.8,0.96-1.95,1.55-3.2,1.65
			c-1.25,0.09-2.48-0.32-3.41-1.15c-3.1-2.76-7.55-6.71-10.33-9.17c-1.4-1.25-1.56-3.38-0.35-4.82c8.3-9.91,15.04-20.94,20.1-32.9
			c6.81-16.1,10.26-33.2,10.26-50.85c0-17.64-3.45-34.75-10.26-50.85c-5.05-11.93-11.77-22.94-20.04-32.83
			c-1.21-1.43-1.05-3.57,0.35-4.81c2.77-2.46,7.22-6.42,10.32-9.17c0.93-0.83,2.17-1.25,3.41-1.15c1.25,0.09,2.4,0.69,3.2,1.65
			C703.25,203.69,706.22,207.66,708.98,211.74L708.98,211.74z M683.04,254.56c5.69,13.46,8.58,27.75,8.58,42.48
			c0,14.73-2.89,29.02-8.58,42.48c-4.11,9.72-9.55,18.7-16.22,26.8c-0.6,0.72-1.47,1.17-2.4,1.24c-0.94,0.07-1.86-0.24-2.56-0.86
			c-3.4-3.02-9.2-8.17-12.06-10.71c-0.93-0.83-1.04-2.25-0.23-3.21c5.48-6.57,9.94-13.88,13.29-21.8
			c4.54-10.75,6.85-22.17,6.85-33.94c0-11.78-2.3-23.2-6.85-33.94c-3.34-7.89-7.77-15.18-13.23-21.74c-0.8-0.96-0.7-2.38,0.23-3.21
			c2.85-2.54,8.66-7.69,12.05-10.71c0.7-0.62,1.63-0.94,2.57-0.86c0.94,0.07,1.8,0.52,2.4,1.25
			C673.52,235.91,678.94,244.87,683.04,254.56L683.04,254.56z M643.03,271.47c3.43,8.11,5.17,16.71,5.17,25.58
			c0,8.87-1.74,17.47-5.17,25.58c-2.41,5.7-5.58,10.98-9.45,15.75c-0.4,0.48-0.98,0.79-1.6,0.83c-0.62,0.05-1.24-0.16-1.71-0.57
			c-3.51-3.11-11.23-9.97-13.78-12.24c-0.46-0.41-0.52-1.12-0.12-1.6c6.42-7.81,9.91-17.51,9.91-27.75
			c0-10.21-3.47-19.89-9.86-27.69c-0.4-0.48-0.34-1.18,0.12-1.6c2.55-2.27,10.27-9.13,13.78-12.24c0.47-0.42,1.09-0.63,1.71-0.58
			c0.63,0.05,1.21,0.35,1.6,0.84C637.48,260.54,640.63,265.79,643.03,271.47L643.03,271.47z M267.63,211.74
			c2.76-4.09,5.73-8.05,8.88-11.86c0.8-0.96,1.95-1.56,3.2-1.65c1.25-0.09,2.48,0.32,3.41,1.15c3.1,2.76,7.55,6.71,10.32,9.17
			c1.4,1.24,1.56,3.38,0.35,4.81c-8.28,9.9-15,20.9-20.04,32.83c-6.81,16.1-10.26,33.2-10.26,50.85c0,17.64,3.45,34.75,10.26,50.85
			c5.06,11.96,11.8,22.99,20.1,32.9c1.21,1.43,1.05,3.57-0.35,4.82c-2.77,2.46-7.22,6.42-10.33,9.17c-0.93,0.83-2.16,1.25-3.41,1.15
			c-1.25-0.09-2.4-0.69-3.2-1.65c-3.18-3.83-6.16-7.82-8.94-11.93c-5.51-8.16-10.24-16.88-14.07-25.92
			c-7.96-18.82-11.99-38.79-11.99-59.39s4.03-40.57,11.99-59.39C257.39,228.62,262.13,219.9,267.63,211.74L267.63,211.74z
			 M293.58,254.56c4.1-9.69,9.52-18.65,16.17-26.73c0.6-0.72,1.47-1.17,2.4-1.25c0.94-0.07,1.86,0.24,2.57,0.86
			c3.4,3.02,9.2,8.18,12.05,10.71c0.93,0.83,1.04,2.25,0.23,3.21c-5.46,6.56-9.89,13.84-13.23,21.74
			c-4.54,10.75-6.85,22.16-6.85,33.94c0,11.78,2.3,23.2,6.85,33.94c3.35,7.92,7.8,15.22,13.29,21.8c0.81,0.96,0.7,2.38-0.23,3.21
			c-2.86,2.54-8.66,7.69-12.06,10.71c-0.7,0.62-1.63,0.94-2.56,0.86c-0.94-0.07-1.8-0.52-2.4-1.24c-6.67-8.1-12.11-17.08-16.22-26.8
			c-5.69-13.46-8.58-27.75-8.58-42.48S287.89,268.02,293.58,254.56L293.58,254.56z M333.59,271.47c2.4-5.67,5.55-10.92,9.39-15.68
			c0.4-0.49,0.98-0.79,1.6-0.84c0.63-0.05,1.25,0.16,1.71,0.58c3.51,3.12,11.22,9.98,13.78,12.24c0.46,0.41,0.52,1.12,0.12,1.6
			c-6.39,7.8-9.86,17.47-9.86,27.69c0,10.24,3.49,19.94,9.91,27.75c0.4,0.48,0.34,1.19-0.12,1.6c-2.55,2.27-10.27,9.13-13.78,12.24
			c-0.47,0.42-1.09,0.62-1.71,0.57c-0.62-0.05-1.2-0.35-1.6-0.83c-3.87-4.78-7.04-10.05-9.45-15.75
			c-3.43-8.11-5.17-16.71-5.17-25.58C328.42,288.18,330.16,279.57,333.59,271.47z"/>
	</g>
</g>
</svg>
