<?xml version="1.0" encoding="utf-8"?>
<!-- Generator: Adobe Illustrator 24.3.0, SVG Export Plug-In . SVG Version: 6.00 Build 0)  -->
<svg version="1.1" id="Layer_1" xmlns="http://www.w3.org/2000/svg" xmlns:xlink="http://www.w3.org/1999/xlink" x="0px" y="0px"
	 viewBox="0 0 1060.54 356.95" style="enable-background:new 0 0 1060.54 356.95;" xml:space="preserve">
<style type="text/css">
	.st0{fill:#F1F9FE;}
	.st1{fill-rule:evenodd;clip-rule:evenodd;fill:#F1F9FE;}
	.st2{fill-rule:evenodd;clip-rule:evenodd;fill:#00CCFF;}
</style>
<g id="Wordmark_3_">
	<path class="st0" d="M958.65,159.45l-68.32,68.19c-0.5,0.5-0.15,1.35,0.56,1.35h65.39c2.14,0,3.87,1.73,3.87,3.88v5.7
		c0,2.14-1.73,3.88-3.87,3.88h-82.31c-2.14,0-3.87-1.73-3.87-3.88v-6.65c0-1.87,0.74-3.66,2.06-4.98l67.22-67.26
		c0.5-0.5,0.15-1.35-0.56-1.35H873.6c-2.14,0-3.87-1.73-3.87-3.88v-5.7c0-2.14,1.73-3.88,3.87-3.88h82.31
		c2.14,0,3.87,1.73,3.87,3.88v7.96C959.79,157.74,959.38,158.73,958.65,159.45L958.65,159.45z"/>
	<path class="st0" d="M855.17,147.78c-4.34,0.06-8.2-3.03-9.05-7.3c-1.12-5.63,3.21-10.87,8.9-10.87c5.08,0,9.08,4.18,9.08,9.09
		C864.11,143.6,860.19,147.71,855.17,147.78L855.17,147.78z M861.74,160.44v80.41c0,0.87-0.71,1.58-1.58,1.58h-10.28
		c-0.87,0-1.58-0.71-1.58-1.58v-80.41c0-0.87,0.71-1.58,1.58-1.58h10.28C861.04,158.87,861.74,159.57,861.74,160.44z"/>
	<path class="st0" d="M792.23,130.89h10.5c0.81,0,1.47,0.66,1.47,1.47v61.21c0,19.51,15.41,35.39,34.73,36.3
		c0.79,0.04,1.4,0.68,1.4,1.47v10.52c0,0.83-0.69,1.5-1.52,1.47c-26.71-0.81-48.05-22.83-48.05-49.76v-61.21
		C790.76,131.54,791.42,130.88,792.23,130.89L792.23,130.89L792.23,130.89z"/>
	<path class="st0" d="M782.77,193.22c0,27.03-21.4,49.49-48.41,50.11c-28.22,0.65-51.36-22.39-50.9-50.59
		c0.41-25.28,20.04-46.31,45.2-48.57c15.93-1.43,30.63,4.77,40.67,15.42v-26.91c0-1.09,0.88-1.97,1.97-1.97h9.49
		c1.09,0,1.97,0.88,1.97,1.97L782.77,193.22L782.77,193.22z M733.92,157.42c-21.19-0.42-38.5,17.39-36.94,38.83
		c1.3,17.87,15.67,32.25,33.53,33.55c21.43,1.56,39.22-15.76,38.81-36.96C768.95,173.54,753.22,157.8,733.92,157.42L733.92,157.42
		L733.92,157.42z"/>
	<path class="st0" d="M621.41,226.94c-0.93,0.93-0.39,2.52,0.91,2.68c1.3,0.16,2.62,0.28,3.94,0.28c17.08,0,31.42-11.96,35.26-28.09
		c0.22-0.89,1-1.53,1.92-1.53h9.71c1.24,0,2.16,1.13,1.94,2.35c-4.37,23.83-25.73,41.67-50.85,40.67
		c-26.14-1.05-47.14-22.46-47.72-48.63c-0.61-27.94,21.95-50.71,49.74-50.71c19.87,0,37.16,11.64,44.99,28.67
		c0.84,1.82,0.47,3.95-0.94,5.36L621.41,226.94L621.41,226.94L621.41,226.94z M606.87,222.6l48.4-48.43
		c0.56-0.56,0.62-1.44,0.15-2.07c-6.62-8.83-17.3-14.69-29.15-14.69c-19.97,0-36.31,16.17-36.31,36.15
		c0,12.05,5.87,22.58,14.87,29.19C605.44,223.22,606.31,223.15,606.87,222.6L606.87,222.6L606.87,222.6z"/>
	<path class="st0" d="M555.08,239.27v-63.6c0-5.27-2.51-10.24-6.8-13.3c-18.24-12.98-37.86-0.3-37.86,17.01v59.09
		c0,2.18-1.77,3.95-3.95,3.95h-5.54c-2.18,0-3.95-1.77-3.95-3.95v-62.55c0-4.97-2.21-9.7-6.1-12.78
		c-18-14.24-38.38-1.41-38.38,16.24v60.67c0,1.31-1.06,2.37-2.37,2.37h-6.33c-2.62,0-4.74-2.12-4.74-4.74v-58.48
		c0-19.8,15.98-35.61,35.59-35.61c11.98,0,22.51,5.82,29.05,14.9c10.08-14,29.64-20.24,49.39-9.38c9.53,5.24,15.43,15.3,15.43,26.19
		v62.39c0,2.62-2.12,4.74-4.74,4.74h-5.54C556.5,242.43,555.09,241.01,555.08,239.27L555.08,239.27L555.08,239.27z"/>
</g>
<g id="Icon_3_">
	<path class="st1" d="M275.25,169.34c-0.1-0.21-0.05-0.45,0.11-0.61c0.16-0.16,0.41-0.21,0.61-0.11c0,0,0,0,0,0
		c1.25,0.57,2.95,1.29,3.78,1.6c0.83,0.31,2.19,0.73,3.02,0.94c0.83,0.21,2.44,0.55,3.59,0.76c1.14,0.2,2.84,0.63,3.78,0.94
		c0.93,0.31,2.25,0.87,2.93,1.23c0.67,0.37,1.82,1.12,2.55,1.67c0.73,0.55,1.96,1.67,2.74,2.49c0.78,0.81,1.84,2.16,2.36,2.99
		c0.52,0.83,1.27,2.28,1.67,3.21c0.4,0.93,1.28,3.36,1.95,5.38c0.67,2.02,1.55,5.04,1.96,6.7c0.41,1.66,0.74,3.32,0.75,3.68
		c0.01,0.54-0.18,0.88-1.07,1.89c-0.6,0.67-1.51,1.59-2.04,2.04c-0.52,0.45-1.63,1.23-2.46,1.73c-0.83,0.51-2.06,1.17-2.74,1.48
		c-0.67,0.31-2.21,0.87-3.4,1.25c-1.19,0.38-3.79,0.98-5.76,1.34s-4.1,0.79-4.72,0.96c-0.62,0.17-1.9,0.62-2.83,1
		c-0.93,0.38-2.21,1.04-2.83,1.46c-0.62,0.42-1.69,1.31-2.37,1.97c-0.68,0.66-1.74,1.97-2.35,2.91c-0.61,0.93-1.56,2.63-2.1,3.78
		c-0.56,1.18-1.84,4.64-2.95,8.02c-1.1,3.33-2.38,6.82-2.92,7.93c-0.52,1.09-1.46,2.66-2.08,3.49c-0.62,0.83-1.76,2.09-2.53,2.81
		c-0.77,0.71-2.07,1.75-2.9,2.3c-0.83,0.55-2.4,1.43-3.49,1.95c-1.09,0.52-2.79,1.16-3.78,1.42c-0.99,0.26-2.51,0.57-3.4,0.67
		c-0.88,0.11-2.71,0.2-4.06,0.19c-1.35,0-3.01-0.09-3.68-0.19c-0.67-0.11-2.16-0.49-3.3-0.85c-1.14-0.36-2.88-1.06-3.87-1.56
		c-0.99-0.49-2.43-1.32-3.21-1.83c-0.78-0.51-2.11-1.62-2.95-2.45c-0.84-0.83-2-2.24-2.57-3.12c-0.57-0.88-1.4-2.33-1.84-3.21
		c-0.44-0.88-1.95-4.49-3.35-8.02c-1.4-3.53-2.89-7.1-3.32-7.93c-0.63-1.21-1.21-1.95-2.96-3.7c-1.3-1.31-2.78-2.59-3.69-3.17
		c-0.83-0.54-2.19-1.32-3.02-1.73c-0.83-0.41-2.28-0.92-3.21-1.13c-1.06-0.24-2.98-0.44-5.1-0.55c-1.87-0.09-4.33-0.34-5.48-0.54
		c-1.14-0.2-2.8-0.56-3.68-0.79c-0.88-0.23-2.46-0.76-3.49-1.17c-1.04-0.41-2.4-1-3.02-1.32c-0.62-0.31-1.86-1.06-2.74-1.67
		c-0.88-0.6-2.09-1.61-2.69-2.24c-0.78-0.83-1.08-1.29-1.08-1.67c0-0.29,0.17-1.41,0.37-2.5c0.2-1.09,0.62-2.96,0.93-4.15
		c0.31-1.19,0.94-3.32,1.41-4.72c0.47-1.4,1.18-3.31,1.59-4.25c0.41-0.93,1.08-2.3,1.51-3.02c0.42-0.73,1.28-2,1.9-2.83
		c0.62-0.83,1.67-2.01,2.34-2.61c0.66-0.61,1.89-1.55,2.72-2.11c0.83-0.55,2.02-1.23,2.64-1.51c0.62-0.28,1.9-0.75,2.83-1.05
		s2.72-0.76,3.96-1.04c1.25-0.28,2.99-0.76,3.87-1.07c0.88-0.31,3.56-1.5,5.95-2.64c0,0,0,0,0,0c0.18-0.09,0.39-0.07,0.55,0.04
		c0.16,0.11,0.26,0.3,0.24,0.5c-0.09,1.52,0,3.06,0.27,4.56c0.06,0.32,0.13,0.64,0.2,0.96c0.07,0.31,0.16,0.62,0.25,0.92
		c0.51,1.71,1.27,3.37,2.29,4.91c0.06,0.1,0.13,0.19,0.19,0.29c-3.39,2.92-1.38,7.89-0.41,10.3c0.15,0.38,0.29,0.71,0.36,0.93
		l0.26-0.09c0.37,0.98,0.8,2.17,1.26,3.45c0.23,0.62,0.46,1.27,0.69,1.92c0.66,1.81,1.34,3.68,1.96,5.33
		c0.8,2.12,1.5,3.86,1.92,4.62c0.1,0.18,0.21,0.34,0.33,0.49c0.43,0.55,0.99,0.9,1.66,1.05c1.07,0.24,2.19-0.09,2.97-0.43
		c0.51,0.28,1.4,0.33,1.98,0.18c0.6-0.15,2.34-1.67,2.34-1.67c0.5-0.38,0.6-1.07,0.24-1.55l-0.91-1.2
		c-0.37-0.48-1.06-0.56-1.56-0.19c0,0-1.93,1.26-2.15,1.84c-0.23,0.59-0.41,1.08-0.44,1.49c-0.6,0.26-1.42,0.5-2.15,0.33
		c-0.39-0.09-0.71-0.29-0.98-0.62c-0.09-0.11-0.16-0.22-0.24-0.35c-0.43-0.77-1.15-2.59-1.98-4.78c-0.62-1.66-1.3-3.54-1.95-5.34
		c-0.24-0.66-0.47-1.3-0.69-1.92l-1.03,0.78l1.03-0.78c-0.41-1.13-0.79-2.18-1.12-3.06l0.24-0.08l0,0c-0.09-0.28-0.23-0.63-0.4-1.04
		c-0.91-2.24-2.59-6.42,0.1-8.48c2.71-2.04,6.28,0.7,8.19,2.18c0.35,0.27,0.66,0.5,0.9,0.66l0,0l0.16-0.24
		c1.6,1.16,3.82,2.72,5.99,4.27l0.36,0.26c1.53,1.09,3.02,2.17,4.23,3.07c0.12,0.09,0.24,0.18,0.35,0.27
		c0.96,0.73,1.7,1.33,2.09,1.71c0.44,0.43,0.64,0.9,0.61,1.43c-0.02,0.54-0.27,1.07-0.55,1.51l0,0c-0.11,0.17-0.23,0.33-0.35,0.48
		c-0.41-0.07-0.93-0.03-1.55,0.03c-0.61,0.06-2.34,1.58-2.34,1.58c-0.5,0.38-0.6,1.07-0.24,1.55l0.91,1.2
		c0.37,0.48,1.06,0.56,1.56,0.19c0,0,1.93-1.27,2.23-1.81c0.29-0.53,0.48-1.39,0.35-1.96c0.4-0.5,0.86-1.19,1.08-1.98l-1.69,1.29
		l1.69-1.29c0.06-0.2,0.1-0.41,0.12-0.62l-1.77,1.34l1.77-1.34c0-0.05,0.01-0.1,0.01-0.14c0.04-0.88-0.28-1.66-0.96-2.32
		c-0.37-0.37-1.06-0.93-1.95-1.61l-1.02,0.77l1.02-0.77c-0.11-0.09-0.23-0.18-0.35-0.27l-1.02,0.77l1.02-0.77
		c-1.19-0.9-2.68-1.98-4.22-3.08l-0.36-0.26c-2.29-1.63-4.65-3.3-6.32-4.51l0.14-0.2c-0.19-0.13-0.47-0.34-0.8-0.59
		c-1.94-1.49-5.81-4.45-9.35-2.75c-0.09-0.12-0.17-0.25-0.25-0.37c-1.02-1.56-1.76-3.24-2.21-4.98c-0.08-0.31-0.15-0.63-0.22-0.94
		c-0.07-0.33-0.12-0.65-0.17-0.98c-0.22-1.57-0.23-3.16-0.02-4.74c0.04-0.32,0.25-0.59,0.54-0.73c0.91-0.43,1.83-0.86,2.69-1.27
		c0.6-0.28,1.31-0.11,1.73,0.4c6.14,7.67,15.58,12.59,26.17,12.59c10.66,0,20.16-4.99,26.29-12.75c0.41-0.52,1.13-0.69,1.73-0.41
		c0.16,0.08,0.32,0.15,0.48,0.22c0.5,0.24,1.05,0.49,1.6,0.75c0.15,0.07,0.27,0.17,0.37,0.3c3.93,5.42,4.38,12.44,1.72,18.38
		l1.07,1.36C277.49,181.2,277.73,174.83,275.25,169.34L275.25,169.34z M270.38,190.35c-2.91-2.85-7.65-3.09-11.05-0.41
		c-3.68,2.9-4.39,8.13-1.59,11.68c2.79,3.53,8,4.06,11.68,1.2l0.1-0.08c3.49-2.79,4.27-7.68,1.87-11.19
		c1.06-1.14,1.97-2.37,2.74-3.67l-0.01-0.02c0.06-0.1,0.11-0.2,0.17-0.29l-1.05-1.33c-0.05,0.09-0.09,0.18-0.14,0.26
		c-0.12,0.22-0.24,0.43-0.36,0.64l-0.01,0.01l0.01,0.01l0,0l-0.01-0.01c-0.06,0.1-0.11,0.19-0.17,0.28
		c-0.31,0.51-0.65,1.02-1.02,1.5C271.18,189.43,270.79,189.9,270.38,190.35L270.38,190.35z M273.24,186.24l1.05,1.33
		c0.05-0.08,0.09-0.17,0.14-0.25c0.12-0.23,0.24-0.46,0.36-0.69l-1.07-1.36C273.56,185.6,273.4,185.92,273.24,186.24L273.24,186.24z
		 M220.6,150.28c-0.26,0.19-0.63,0.15-0.84-0.11c-3.71-4.51-6.07-10.2-6.45-16.42c-0.02-0.36,0.26-0.66,0.61-0.66h10.91
		c0.32,0,0.6,0.26,0.61,0.59c0.18,4.16,1.03,8.18,2.48,11.9c0.12,0.31-0.03,0.67-0.34,0.79C225.1,147.4,222.75,148.71,220.6,150.28
		L220.6,150.28z M222.26,112c-0.3-0.21-0.33-0.64-0.06-0.89c4.05-3.83,9.21-6.46,14.94-7.37c0.57-0.09,0.9,0.63,0.45,1
		c-1.28,1.06-2.49,2.24-3.62,3.54c-1.83,2.09-3.38,4.41-4.64,6.9c-0.13,0.26-0.44,0.39-0.71,0.27
		C226.33,114.53,224.2,113.37,222.26,112L222.26,112z M240.39,120.97v9.06c0,0.43-0.34,0.78-0.77,0.78h-11.13
		c-0.44,0-0.79-0.37-0.77-0.82c0.21-3.83,1.01-7.47,2.31-10.8c0.15-0.37,0.55-0.57,0.93-0.46c2.78,0.83,5.7,1.33,8.69,1.47
		C240.07,120.22,240.39,120.56,240.39,120.97L240.39,120.97z M213.92,130.81c-0.35,0-0.63-0.3-0.61-0.66
		c0.38-6.22,2.74-11.91,6.45-16.42c0.21-0.25,0.57-0.3,0.84-0.11c2.16,1.57,4.51,2.88,6.99,3.91c0.31,0.13,0.46,0.48,0.34,0.79
		c-1.45,3.72-2.3,7.74-2.48,11.9c-0.01,0.32-0.29,0.59-0.61,0.59H213.92L213.92,130.81z M263.28,150.17
		c-0.21,0.25-0.57,0.3-0.84,0.11c-2.16-1.57-4.51-2.88-6.99-3.91c-0.31-0.13-0.46-0.48-0.33-0.79c1.45-3.72,2.3-7.74,2.48-11.9
		c0.01-0.32,0.29-0.59,0.61-0.59h10.91c0.35,0,0.63,0.3,0.61,0.66C269.35,139.98,266.99,145.66,263.28,150.17L263.28,150.17z
		 M255.11,118.32c-0.12-0.31,0.03-0.67,0.33-0.79c2.49-1.03,4.84-2.34,6.99-3.91c0.26-0.19,0.63-0.15,0.84,0.11
		c3.71,4.51,6.07,10.2,6.45,16.42c0.02,0.36-0.26,0.66-0.61,0.66H258.2c-0.32,0-0.6-0.26-0.61-0.59
		C257.41,126.06,256.56,122.04,255.11,118.32L255.11,118.32z M243.24,117.92c-0.32,0.02-0.59-0.25-0.59-0.57v-10.73
		c0-0.48,0.54-0.74,0.92-0.45c3.19,2.52,5.88,5.8,7.89,9.62c0.17,0.32,0,0.72-0.35,0.82C248.61,117.34,245.97,117.78,243.24,117.92
		L243.24,117.92z M254.42,148.44c2.28,0.93,4.41,2.1,6.35,3.46c0.3,0.21,0.33,0.64,0.06,0.89c-4.05,3.83-9.21,6.46-14.94,7.36
		c-0.57,0.09-0.9-0.63-0.45-1c1.28-1.06,2.49-2.24,3.62-3.54c1.83-2.09,3.38-4.41,4.64-6.9
		C253.84,148.45,254.15,148.33,254.42,148.44L254.42,148.44z M243.42,130.81c-0.42,0-0.77-0.35-0.77-0.78v-9.06
		c0-0.41,0.32-0.75,0.73-0.77c2.99-0.15,5.91-0.64,8.69-1.47c0.38-0.11,0.79,0.09,0.93,0.46c1.3,3.33,2.11,6.98,2.31,10.8
		c0.02,0.44-0.33,0.82-0.77,0.82L243.42,130.81L243.42,130.81z M245.45,104.75c-0.45-0.37-0.12-1.09,0.45-1
		c5.73,0.9,10.89,3.54,14.94,7.37c0.26,0.25,0.23,0.68-0.06,0.89c-1.94,1.37-4.07,2.54-6.35,3.46c-0.27,0.11-0.58-0.01-0.71-0.27
		c-1.26-2.49-2.82-4.81-4.64-6.9C247.94,106.98,246.72,105.8,245.45,104.75L245.45,104.75z M231.58,115.79
		c2.01-3.82,4.71-7.1,7.89-9.62c0.37-0.29,0.92-0.03,0.92,0.45v10.73c0,0.32-0.27,0.59-0.59,0.57c-2.73-0.13-5.37-0.58-7.87-1.3
		C231.58,116.51,231.41,116.11,231.58,115.79L231.58,115.79z M240.39,157.28c0,0.48-0.54,0.74-0.92,0.45
		c-3.19-2.52-5.88-5.8-7.89-9.62c-0.17-0.32,0-0.72,0.35-0.82c2.5-0.72,5.14-1.17,7.87-1.3c0.32-0.02,0.59,0.25,0.59,0.57V157.28z
		 M233.97,155.62c1.13,1.3,2.35,2.48,3.62,3.54c0.45,0.37,0.12,1.09-0.45,1c-5.73-0.9-10.89-3.54-14.94-7.36
		c-0.26-0.25-0.23-0.68,0.06-0.89c1.94-1.37,4.07-2.54,6.35-3.46c0.27-0.11,0.58,0.01,0.71,0.27
		C230.59,151.2,232.14,153.52,233.97,155.62L233.97,155.62z M240.39,133.87v9.06c0,0.41-0.32,0.75-0.73,0.77
		c-2.99,0.15-5.91,0.64-8.69,1.47c-0.38,0.11-0.79-0.09-0.93-0.46c-1.3-3.33-2.11-6.98-2.31-10.8c-0.02-0.44,0.33-0.82,0.77-0.82
		h11.13C240.04,133.09,240.39,133.44,240.39,133.87L240.39,133.87z M243.38,143.7c-0.41-0.02-0.73-0.36-0.73-0.77v-9.06
		c0-0.43,0.34-0.78,0.77-0.78h11.13c0.44,0,0.79,0.37,0.77,0.82c-0.21,3.83-1.01,7.47-2.31,10.8c-0.15,0.37-0.55,0.57-0.93,0.46
		C249.29,144.35,246.37,143.85,243.38,143.7L243.38,143.7z M242.65,157.28v-10.73c0-0.32,0.27-0.59,0.59-0.57
		c2.73,0.13,5.37,0.58,7.87,1.3c0.35,0.1,0.52,0.5,0.35,0.82c-2.01,3.82-4.71,7.1-7.89,9.62
		C243.19,158.02,242.65,157.75,242.65,157.28L242.65,157.28z"/>
	<path class="st2" d="M115.3,147.54c1.72-2.55,3.59-5.02,5.58-7.38c0.33-0.39,0.81-0.63,1.32-0.67s1.02,0.14,1.4,0.48
		c1.9,1.69,5.19,4.61,6.87,6.1c0.58,0.52,0.64,1.41,0.14,2c-4.89,5.76-8.85,12.19-11.8,19.18c-3.89,9.21-5.87,18.99-5.87,29.08
		s1.97,19.87,5.87,29.08c2.96,7,6.93,13.45,11.83,19.22c0.51,0.59,0.44,1.48-0.14,2c-1.68,1.49-4.97,4.41-6.87,6.1
		c-0.38,0.34-0.89,0.51-1.4,0.48c-0.51-0.04-0.99-0.28-1.32-0.67c-2-2.37-3.88-4.85-5.61-7.42c-3.15-4.67-5.86-9.65-8.05-14.82
		c-4.55-10.76-6.86-22.19-6.86-33.97c0-11.78,2.31-23.21,6.86-33.97C109.44,157.19,112.15,152.21,115.3,147.54L115.3,147.54z
		 M130.14,172.03c2.42-5.72,5.65-11,9.62-15.74c0.25-0.3,0.61-0.48,0.99-0.51c0.39-0.03,0.77,0.1,1.05,0.36
		c1.94,1.73,5.96,5.3,7.58,6.74c0.39,0.34,0.43,0.94,0.09,1.33c-3.22,3.82-5.84,8.08-7.79,12.7c-2.6,6.15-3.92,12.68-3.92,19.41
		c0,6.74,1.32,13.27,3.92,19.41c1.96,4.64,4.59,8.91,7.82,12.74c0.34,0.4,0.3,0.99-0.09,1.33c-1.62,1.44-5.64,5.01-7.58,6.74
		c-0.29,0.26-0.67,0.39-1.05,0.36c-0.38-0.03-0.74-0.21-0.99-0.5c-3.99-4.75-7.22-10.04-9.65-15.78c-3.26-7.7-4.91-15.87-4.91-24.3
		C125.23,187.91,126.88,179.73,130.14,172.03L130.14,172.03z M153.02,181.7c1.42-3.36,3.31-6.47,5.62-9.27
		c0.17-0.2,0.4-0.32,0.66-0.34c0.26-0.02,0.51,0.07,0.7,0.24c1.9,1.68,6.93,6.16,8.3,7.37c0.19,0.17,0.21,0.46,0.05,0.66
		c-3.72,4.48-5.75,10.07-5.75,15.97c0,5.92,2.04,11.52,5.78,16.01c0.17,0.2,0.14,0.49-0.05,0.66c-1.37,1.22-6.4,5.69-8.3,7.37
		c-0.19,0.17-0.45,0.26-0.7,0.24c-0.26-0.02-0.5-0.14-0.66-0.34c-2.33-2.81-4.22-5.93-5.65-9.31c-1.96-4.64-2.96-9.56-2.96-14.63
		S151.06,186.34,153.02,181.7L153.02,181.7z M367.74,147.54c3.15,4.67,5.86,9.65,8.05,14.82c4.55,10.76,6.86,22.19,6.86,33.97
		c0,11.78-2.31,23.21-6.86,33.97c-2.19,5.17-4.9,10.16-8.05,14.82c-1.73,2.56-3.61,5.04-5.61,7.42c-0.33,0.39-0.81,0.63-1.32,0.67
		c-0.51,0.04-1.02-0.14-1.4-0.48c-1.9-1.69-5.19-4.61-6.87-6.1c-0.58-0.52-0.64-1.41-0.14-2c4.9-5.77,8.87-12.21,11.83-19.22
		c3.89-9.21,5.87-18.99,5.87-29.08c0-10.09-1.97-19.87-5.87-29.08c-2.96-6.99-6.91-13.42-11.8-19.18c-0.51-0.59-0.44-1.48,0.14-2
		c1.68-1.49,4.97-4.42,6.87-6.1c0.38-0.34,0.89-0.51,1.4-0.48s0.99,0.28,1.32,0.67C364.15,142.53,366.01,144.99,367.74,147.54
		L367.74,147.54z M352.9,172.03c3.26,7.7,4.91,15.87,4.91,24.3c0,8.42-1.65,16.6-4.91,24.3c-2.43,5.74-5.67,11.03-9.65,15.78
		c-0.25,0.29-0.61,0.48-0.99,0.5c-0.38,0.03-0.76-0.1-1.05-0.36c-1.94-1.73-5.96-5.3-7.58-6.74c-0.39-0.34-0.43-0.94-0.09-1.33
		c3.24-3.83,5.86-8.1,7.82-12.74c2.6-6.15,3.92-12.68,3.92-19.41c0-6.74-1.32-13.27-3.92-19.41c-1.96-4.62-4.57-8.88-7.79-12.7
		c-0.34-0.39-0.29-0.99,0.09-1.33c1.62-1.44,5.64-5.01,7.58-6.74c0.29-0.26,0.67-0.39,1.05-0.36c0.39,0.03,0.74,0.21,0.99,0.51
		C347.25,161.04,350.48,166.31,352.9,172.03L352.9,172.03z M330.01,181.7c1.96,4.64,2.96,9.56,2.96,14.63s-0.99,9.99-2.96,14.63
		c-1.43,3.38-3.33,6.5-5.65,9.31c-0.17,0.2-0.4,0.32-0.66,0.34c-0.26,0.02-0.51-0.07-0.7-0.24c-1.9-1.68-6.93-6.15-8.3-7.37
		c-0.19-0.17-0.21-0.47-0.05-0.66c3.74-4.49,5.78-10.09,5.78-16.01c0-5.9-2.03-11.49-5.75-15.97c-0.17-0.2-0.14-0.49,0.05-0.66
		c1.37-1.22,6.4-5.69,8.3-7.37c0.19-0.17,0.45-0.26,0.7-0.24c0.26,0.02,0.5,0.14,0.66,0.34C326.7,175.23,328.59,178.34,330.01,181.7
		L330.01,181.7z"/>
</g>
</svg>
