<?xml version="1.0" encoding="utf-8"?>
<!-- Generator: Adobe Illustrator 24.3.0, SVG Export Plug-In . SVG Version: 6.00 Build 0)  -->
<svg version="1.1" id="Layer_1" xmlns="http://www.w3.org/2000/svg" xmlns:xlink="http://www.w3.org/1999/xlink" x="0px" y="0px"
	 viewBox="0 0 531.1 531.1" style="enable-background:new 0 0 531.1 531.1;" xml:space="preserve">
<style type="text/css">
	.st0{fill-rule:evenodd;clip-rule:evenodd;fill:#09181D;}
	.st1{fill-rule:evenodd;clip-rule:evenodd;fill:#00CCFF;}
</style>
<path class="st0" d="M324.52,241.84c-0.17-0.36-0.09-0.79,0.19-1.07c0.28-0.28,0.71-0.36,1.07-0.19c0,0,0,0,0,0
	c2.18,1,5.15,2.26,6.6,2.79c1.45,0.54,3.83,1.28,5.28,1.64c1.45,0.37,4.27,0.96,6.27,1.32c2,0.36,4.97,1.1,6.6,1.64
	c1.63,0.54,3.94,1.51,5.12,2.16c1.18,0.64,3.19,1.95,4.46,2.92c1.27,0.96,3.43,2.92,4.8,4.34c1.36,1.42,3.22,3.78,4.12,5.23
	c0.9,1.45,2.21,3.98,2.92,5.61c0.7,1.63,2.24,5.87,3.41,9.41c1.18,3.54,2.72,8.81,3.43,11.72c0.71,2.9,1.3,5.8,1.31,6.44
	c0.01,0.95-0.32,1.54-1.88,3.3c-1.04,1.18-2.65,2.79-3.56,3.57c-0.92,0.79-2.86,2.15-4.31,3.03c-1.45,0.88-3.61,2.05-4.79,2.58
	c-1.18,0.54-3.86,1.52-5.94,2.18c-2.09,0.66-6.62,1.72-10.07,2.34c-3.45,0.63-7.16,1.38-8.25,1.68c-1.09,0.3-3.32,1.09-4.95,1.75
	c-1.63,0.67-3.86,1.82-4.95,2.55c-1.09,0.74-2.96,2.29-4.15,3.45c-1.19,1.16-3.04,3.45-4.11,5.08c-1.07,1.63-2.72,4.6-3.67,6.6
	c-0.99,2.07-3.21,8.11-5.17,14.03c-1.92,5.82-4.17,11.93-5.1,13.87c-0.92,1.91-2.55,4.65-3.64,6.11c-1.09,1.45-3.08,3.66-4.42,4.9
	c-1.34,1.25-3.63,3.06-5.08,4.02c-1.45,0.97-4.2,2.5-6.11,3.41c-1.91,0.91-4.88,2.03-6.6,2.49c-1.72,0.46-4.4,0.99-5.94,1.18
	c-1.54,0.19-4.74,0.34-7.1,0.34c-2.36,0-5.26-0.15-6.44-0.34c-1.18-0.19-3.78-0.86-5.78-1.49c-2-0.63-5.04-1.86-6.77-2.72
	c-1.72-0.86-4.25-2.3-5.61-3.2c-1.36-0.9-3.68-2.83-5.16-4.28c-1.48-1.46-3.5-3.91-4.5-5.45c-1-1.54-2.45-4.07-3.22-5.61
	c-0.77-1.54-3.4-7.86-5.85-14.03c-2.44-6.17-5.06-12.41-5.81-13.87c-1.09-2.12-2.12-3.4-5.17-6.47c-2.27-2.29-4.87-4.52-6.44-5.55
	c-1.45-0.95-3.83-2.31-5.28-3.02c-1.45-0.72-3.98-1.61-5.61-1.97c-1.85-0.42-5.2-0.78-8.91-0.97c-3.27-0.17-7.57-0.59-9.57-0.94
	c-2-0.35-4.89-0.98-6.44-1.39c-1.54-0.41-4.29-1.33-6.11-2.05c-1.82-0.72-4.19-1.76-5.28-2.31c-1.09-0.55-3.24-1.86-4.79-2.91
	c-1.54-1.05-3.66-2.82-4.7-3.92c-1.37-1.45-1.9-2.26-1.89-2.91c0-0.5,0.29-2.47,0.64-4.37c0.35-1.91,1.08-5.17,1.62-7.26
	c0.54-2.09,1.65-5.8,2.47-8.25c0.82-2.45,2.07-5.79,2.77-7.43c0.71-1.63,1.89-4.01,2.63-5.28c0.74-1.27,2.23-3.5,3.31-4.95
	c1.08-1.45,2.92-3.51,4.08-4.57c1.16-1.06,3.3-2.72,4.75-3.68c1.45-0.97,3.53-2.16,4.62-2.65c1.09-0.49,3.32-1.31,4.95-1.83
	c1.63-0.52,4.75-1.34,6.93-1.82c2.18-0.49,5.23-1.33,6.77-1.87c1.54-0.54,6.22-2.62,10.4-4.62h0c0.31-0.15,0.68-0.12,0.97,0.07
	c0.29,0.19,0.45,0.53,0.42,0.87c-0.16,2.66-0.01,5.34,0.48,7.98c0.1,0.56,0.22,1.12,0.35,1.67c0.13,0.54,0.27,1.08,0.43,1.61
	c0.88,2.99,2.22,5.89,4.01,8.59c0.11,0.17,0.22,0.33,0.34,0.5c-5.92,5.11-2.42,13.79-0.71,18.01c0.27,0.67,0.5,1.24,0.62,1.62
	l0.45-0.15c0.64,1.72,1.4,3.79,2.2,6.02c0.39,1.09,0.8,2.22,1.21,3.36c1.15,3.17,2.34,6.44,3.42,9.32c1.4,3.7,2.62,6.74,3.36,8.07
	c0.17,0.31,0.36,0.6,0.57,0.86c0.75,0.96,1.72,1.57,2.9,1.84c1.86,0.43,3.84-0.16,5.19-0.75c0.89,0.49,2.44,0.57,3.47,0.32
	c1.05-0.26,4.09-2.91,4.09-2.91c0.87-0.66,1.05-1.88,0.42-2.72l-1.59-2.09c-0.64-0.84-1.86-0.99-2.73-0.33c0,0-3.37,2.2-3.76,3.21
	c-0.4,1.03-0.71,1.88-0.78,2.6c-1.04,0.45-2.49,0.88-3.77,0.58c-0.68-0.16-1.25-0.51-1.71-1.08c-0.15-0.18-0.29-0.39-0.41-0.62
	c-0.75-1.35-2.02-4.52-3.45-8.36c-1.09-2.9-2.27-6.18-3.41-9.33c-0.41-1.15-0.82-2.27-1.21-3.36l-1.8,1.37l1.8-1.37
	c-0.71-1.97-1.38-3.81-1.96-5.36l0.43-0.15l0,0c-0.16-0.49-0.41-1.11-0.7-1.83c-1.58-3.92-4.53-11.22,0.17-14.82
	c4.73-3.56,10.97,1.23,14.33,3.8c0.62,0.47,1.15,0.88,1.57,1.16l0,0l0.28-0.41c2.79,2.02,6.68,4.76,10.48,7.47l0.63,0.45
	c2.68,1.91,5.28,3.79,7.39,5.37c0.21,0.16,0.42,0.31,0.61,0.46c1.68,1.27,2.98,2.32,3.66,2.99c0.76,0.75,1.11,1.57,1.07,2.5
	c-0.04,0.94-0.47,1.86-0.97,2.64l0,0c-0.2,0.3-0.4,0.58-0.6,0.83c-0.71-0.13-1.62-0.06-2.72,0.05c-1.07,0.11-4.1,2.77-4.1,2.77
	c-0.87,0.66-1.05,1.88-0.42,2.72l1.59,2.09c0.64,0.84,1.86,0.99,2.73,0.33c0,0,3.37-2.22,3.9-3.16c0.51-0.92,0.85-2.44,0.62-3.43
	c0.7-0.87,1.51-2.09,1.89-3.46l-2.96,2.25l2.96-2.25c0.1-0.35,0.17-0.72,0.2-1.09l-3.09,2.35l3.09-2.35
	c0.01-0.08,0.01-0.17,0.02-0.25c0.07-1.53-0.5-2.9-1.68-4.06c-0.65-0.64-1.86-1.62-3.41-2.81l-1.78,1.35l1.78-1.35
	c-0.2-0.15-0.4-0.31-0.61-0.47l-1.78,1.35l1.78-1.35c-2.08-1.57-4.68-3.45-7.38-5.38l-0.63-0.45c-4-2.85-8.13-5.76-11.05-7.88
	l0.24-0.35c-0.33-0.22-0.83-0.6-1.4-1.04c-3.4-2.61-10.15-7.79-16.35-4.81c-0.15-0.22-0.3-0.43-0.44-0.65
	c-1.79-2.73-3.07-5.67-3.86-8.7c-0.14-0.55-0.27-1.1-0.38-1.65c-0.11-0.57-0.21-1.14-0.29-1.72c-0.37-2.62-0.39-5.28-0.08-7.91
	c0.1-0.78,0.59-1.46,1.3-1.8c1.25-0.59,2.51-1.18,3.71-1.75c1.43-0.67,3.14-0.28,4.15,0.94c10.74,13.1,27.05,21.46,45.3,21.46
	c18.37,0,34.78-8.48,45.52-21.73c1-1.24,2.72-1.63,4.16-0.96c0.05,0.02,0.1,0.05,0.15,0.07c0.83,0.39,1.73,0.81,2.64,1.24
	c0.36,0.17,0.66,0.42,0.89,0.74c6.78,9.46,7.54,21.66,2.9,31.99l1.88,2.38C328.44,262.59,328.85,251.45,324.52,241.84L324.52,241.84
	z M316.02,278.59c-5.08-4.98-13.38-5.41-19.32-0.71c-6.43,5.08-7.68,14.22-2.79,20.41c4.87,6.17,13.99,7.09,20.42,2.09l0.17-0.13
	c6.09-4.88,7.46-13.43,3.28-19.56c1.85-1.99,3.45-4.15,4.78-6.42l-0.01-0.03c0.1-0.17,0.2-0.34,0.3-0.52l-1.83-2.32
	c-0.08,0.15-0.16,0.31-0.24,0.46c-0.2,0.38-0.41,0.75-0.63,1.13l-0.01,0.02l0.02,0.02l0,0l-0.02-0.02c-0.1,0.17-0.2,0.33-0.3,0.5
	c-0.55,0.9-1.14,1.77-1.78,2.63C317.4,276.98,316.73,277.8,316.02,278.59L316.02,278.59z M321.01,271.4l1.83,2.32
	c0.08-0.14,0.16-0.29,0.24-0.44c0.22-0.4,0.43-0.8,0.63-1.2l-1.88-2.38C321.57,270.27,321.3,270.84,321.01,271.4L321.01,271.4z
	 M228.97,208.53c-0.46,0.34-1.1,0.26-1.46-0.19c-6.49-7.89-10.61-17.83-11.28-28.71c-0.04-0.63,0.45-1.16,1.07-1.16h19.08
	c0.56,0,1.04,0.46,1.07,1.03c0.32,7.27,1.8,14.3,4.33,20.81c0.21,0.55-0.05,1.17-0.59,1.39
	C236.85,203.5,232.74,205.78,228.97,208.53L228.97,208.53z M231.89,141.6c-0.52-0.36-0.57-1.12-0.11-1.55
	c7.07-6.69,16.1-11.3,26.12-12.88c1-0.16,1.57,1.11,0.79,1.75c-2.23,1.85-4.35,3.91-6.33,6.18c-3.19,3.66-5.91,7.72-8.12,12.07
	c-0.23,0.46-0.77,0.67-1.25,0.48C239,146.03,235.28,143.99,231.89,141.6L231.89,141.6z M263.57,157.29v15.84
	c0,0.75-0.6,1.36-1.34,1.36h-19.46c-0.77,0-1.39-0.65-1.34-1.43c0.36-6.69,1.77-13.06,4.05-18.89c0.25-0.65,0.96-1,1.63-0.81
	c4.87,1.45,9.97,2.32,15.2,2.58C263.01,155.97,263.57,156.57,263.57,157.29L263.57,157.29z M217.3,174.48
	c-0.62,0-1.11-0.53-1.07-1.16c0.67-10.88,4.79-20.82,11.28-28.71c0.36-0.44,1-0.52,1.46-0.19c3.77,2.75,7.88,5.03,12.23,6.83
	c0.54,0.22,0.8,0.84,0.59,1.39c-2.54,6.51-4.01,13.54-4.33,20.81c-0.03,0.56-0.51,1.03-1.07,1.03L217.3,174.48L217.3,174.48z
	 M303.59,208.34c-0.36,0.44-1,0.52-1.46,0.19c-3.77-2.75-7.88-5.03-12.23-6.83c-0.54-0.22-0.8-0.84-0.59-1.39
	c2.54-6.51,4.01-13.54,4.33-20.81c0.03-0.56,0.51-1.03,1.07-1.03h19.08c0.62,0,1.11,0.53,1.07,1.16
	C314.2,190.52,310.08,200.46,303.59,208.34L303.59,208.34z M289.32,152.65c-0.21-0.55,0.05-1.17,0.59-1.39
	c4.35-1.8,8.45-4.09,12.23-6.83c0.46-0.34,1.1-0.26,1.46,0.19c6.49,7.89,10.61,17.83,11.28,28.71c0.04,0.63-0.45,1.16-1.07,1.16
	h-19.08c-0.56,0-1.04-0.46-1.07-1.03C293.33,166.19,291.85,159.16,289.32,152.65L289.32,152.65z M268.55,151.95
	c-0.56,0.03-1.03-0.43-1.03-1V132.2c0-0.83,0.95-1.3,1.6-0.78c5.57,4.41,10.28,10.15,13.8,16.82c0.3,0.56,0,1.26-0.6,1.43
	C277.95,150.93,273.33,151.72,268.55,151.95L268.55,151.95z M288.11,205.31c3.98,1.62,7.71,3.66,11.1,6.06
	c0.52,0.36,0.57,1.12,0.11,1.55c-7.07,6.69-16.1,11.3-26.12,12.88c-1,0.16-1.57-1.11-0.79-1.75c2.23-1.85,4.35-3.91,6.33-6.18
	c3.19-3.66,5.91-7.72,8.12-12.07C287.1,205.33,287.64,205.11,288.11,205.31L288.11,205.31z M268.87,174.48
	c-0.74,0-1.34-0.61-1.34-1.36v-15.84c0-0.72,0.56-1.32,1.28-1.35c5.23-0.26,10.33-1.13,15.2-2.58c0.67-0.2,1.37,0.15,1.63,0.81
	c2.27,5.83,3.68,12.2,4.04,18.89c0.04,0.78-0.57,1.43-1.34,1.43H268.87L268.87,174.48z M272.42,128.92
	c-0.78-0.64-0.21-1.91,0.79-1.75c10.02,1.57,19.04,6.19,26.12,12.88c0.46,0.44,0.41,1.19-0.11,1.55c-3.39,2.39-7.12,4.43-11.1,6.06
	c-0.47,0.19-1.01-0.02-1.25-0.48c-2.21-4.35-4.92-8.41-8.12-12.07C276.77,132.83,274.65,130.77,272.42,128.92L272.42,128.92z
	 M248.17,148.23c3.51-6.67,8.23-12.41,13.8-16.82c0.65-0.51,1.6-0.05,1.6,0.78v18.75c0,0.57-0.47,1.02-1.03,1
	c-4.78-0.23-9.39-1.02-13.77-2.28C248.17,149.49,247.88,148.8,248.17,148.23L248.17,148.23z M263.57,220.76
	c0,0.83-0.95,1.3-1.6,0.78c-5.57-4.41-10.28-10.15-13.8-16.82c-0.3-0.56,0-1.26,0.6-1.43c4.37-1.26,8.99-2.05,13.77-2.28
	c0.56-0.03,1.03,0.43,1.03,1L263.57,220.76L263.57,220.76z M252.35,217.86c1.98,2.27,4.1,4.34,6.33,6.18
	c0.78,0.64,0.21,1.91-0.79,1.75c-10.02-1.57-19.04-6.19-26.12-12.88c-0.46-0.44-0.41-1.19,0.11-1.55c3.39-2.39,7.12-4.43,11.1-6.06
	c0.47-0.19,1.01,0.02,1.25,0.48C246.44,210.14,249.16,214.2,252.35,217.86L252.35,217.86z M263.57,179.84v15.84
	c0,0.72-0.56,1.32-1.27,1.35c-5.23,0.26-10.33,1.13-15.2,2.58c-0.67,0.2-1.37-0.15-1.63-0.81c-2.27-5.83-3.68-12.2-4.05-18.89
	c-0.04-0.78,0.57-1.43,1.34-1.43h19.46C262.97,178.48,263.57,179.09,263.57,179.84L263.57,179.84z M268.8,197.03
	c-0.71-0.04-1.28-0.63-1.28-1.35v-15.84c0-0.75,0.6-1.36,1.34-1.36h19.46c0.77,0,1.39,0.65,1.34,1.43
	c-0.36,6.69-1.77,13.06-4.04,18.89c-0.25,0.65-0.96,1-1.63,0.81C279.13,198.15,274.03,197.28,268.8,197.03L268.8,197.03z
	 M267.53,220.76v-18.75c0-0.57,0.47-1.03,1.03-1c4.78,0.23,9.39,1.02,13.77,2.28c0.61,0.18,0.9,0.87,0.6,1.43
	c-3.51,6.67-8.23,12.41-13.8,16.82C268.48,222.06,267.53,221.6,267.53,220.76L267.53,220.76z"/>
<path class="st1" d="M486.22,203.74c5.51,8.16,10.24,16.88,14.07,25.92c7.96,18.82,11.99,38.79,11.99,59.39
	c0,20.59-4.03,40.57-11.99,59.39c-3.83,9.04-8.56,17.76-14.07,25.92c-2.78,4.11-5.77,8.1-8.94,11.93c-0.8,0.96-1.95,1.55-3.2,1.65
	c-1.25,0.09-2.48-0.32-3.41-1.15c-3.1-2.76-7.55-6.71-10.33-9.17c-1.4-1.25-1.56-3.38-0.35-4.82c8.3-9.91,15.04-20.94,20.1-32.9
	c6.81-16.1,10.26-33.2,10.26-50.85c0-17.64-3.45-34.75-10.26-50.85c-5.05-11.93-11.77-22.94-20.04-32.83
	c-1.21-1.43-1.05-3.57,0.35-4.81c2.77-2.46,7.22-6.42,10.32-9.17c0.93-0.83,2.17-1.25,3.41-1.15c1.25,0.09,2.4,0.69,3.2,1.65
	C480.5,195.69,483.46,199.66,486.22,203.74L486.22,203.74z M460.28,246.56c5.69,13.46,8.58,27.75,8.58,42.48
	c0,14.73-2.89,29.02-8.58,42.48c-4.11,9.72-9.55,18.7-16.22,26.8c-0.6,0.72-1.47,1.17-2.4,1.24c-0.94,0.07-1.86-0.24-2.56-0.86
	c-3.4-3.02-9.2-8.17-12.06-10.71c-0.93-0.83-1.04-2.25-0.23-3.21c5.48-6.57,9.94-13.88,13.29-21.8c4.54-10.75,6.85-22.17,6.85-33.94
	c0-11.78-2.3-23.2-6.85-33.94c-3.34-7.89-7.77-15.18-13.23-21.74c-0.8-0.96-0.7-2.38,0.23-3.21c2.85-2.54,8.66-7.69,12.05-10.71
	c0.7-0.62,1.63-0.94,2.57-0.86c0.94,0.07,1.8,0.52,2.4,1.25C450.76,227.91,456.18,236.87,460.28,246.56L460.28,246.56z
	 M420.27,263.47c3.43,8.11,5.17,16.71,5.17,25.58c0,8.87-1.74,17.47-5.17,25.58c-2.41,5.7-5.58,10.98-9.45,15.75
	c-0.4,0.48-0.98,0.79-1.6,0.83c-0.62,0.05-1.24-0.16-1.71-0.57c-3.51-3.11-11.23-9.97-13.78-12.24c-0.46-0.41-0.52-1.12-0.12-1.6
	c6.42-7.81,9.91-17.51,9.91-27.75c0-10.21-3.47-19.89-9.86-27.69c-0.4-0.48-0.34-1.18,0.12-1.6c2.55-2.27,10.27-9.13,13.78-12.24
	c0.47-0.42,1.09-0.63,1.71-0.58c0.63,0.05,1.21,0.35,1.6,0.84C414.72,252.54,417.87,257.79,420.27,263.47L420.27,263.47z
	 M44.87,203.74c2.76-4.09,5.73-8.05,8.88-11.86c0.8-0.96,1.95-1.56,3.2-1.65c1.25-0.09,2.48,0.32,3.41,1.15
	c3.1,2.76,7.55,6.71,10.32,9.17c1.4,1.24,1.56,3.38,0.35,4.81c-8.28,9.9-15,20.9-20.04,32.83c-6.81,16.1-10.26,33.2-10.26,50.85
	c0,17.64,3.45,34.75,10.26,50.85c5.06,11.96,11.8,22.99,20.1,32.9c1.21,1.43,1.05,3.57-0.35,4.82c-2.77,2.46-7.22,6.42-10.33,9.17
	c-0.93,0.83-2.16,1.25-3.41,1.15c-1.25-0.09-2.4-0.69-3.2-1.65c-3.18-3.83-6.16-7.82-8.94-11.93c-5.51-8.16-10.24-16.88-14.07-25.92
	c-7.96-18.82-11.99-38.79-11.99-59.39s4.03-40.57,11.99-59.39C34.63,220.62,39.37,211.9,44.87,203.74L44.87,203.74z M70.82,246.56
	c4.1-9.69,9.52-18.65,16.17-26.73c0.6-0.72,1.47-1.17,2.4-1.25c0.94-0.07,1.86,0.24,2.57,0.86c3.4,3.02,9.2,8.18,12.05,10.71
	c0.93,0.83,1.04,2.25,0.23,3.21c-5.46,6.56-9.89,13.84-13.23,21.74c-4.54,10.75-6.85,22.16-6.85,33.94c0,11.78,2.3,23.2,6.85,33.94
	c3.35,7.92,7.8,15.22,13.29,21.8c0.81,0.96,0.7,2.38-0.23,3.21c-2.86,2.54-8.66,7.69-12.06,10.71c-0.7,0.62-1.63,0.94-2.56,0.86
	c-0.94-0.07-1.8-0.52-2.4-1.24c-6.67-8.1-12.11-17.08-16.22-26.8c-5.69-13.46-8.58-27.75-8.58-42.48
	C62.24,274.32,65.13,260.02,70.82,246.56L70.82,246.56z M110.83,263.47c2.4-5.67,5.55-10.92,9.39-15.68c0.4-0.49,0.98-0.79,1.6-0.84
	c0.63-0.05,1.25,0.16,1.71,0.58c3.51,3.12,11.22,9.98,13.78,12.24c0.46,0.41,0.52,1.12,0.12,1.6c-6.39,7.8-9.86,17.47-9.86,27.69
	c0,10.24,3.49,19.94,9.91,27.75c0.4,0.48,0.34,1.19-0.12,1.6c-2.55,2.27-10.27,9.13-13.78,12.24c-0.47,0.42-1.09,0.62-1.71,0.57
	s-1.2-0.35-1.6-0.83c-3.87-4.78-7.04-10.05-9.45-15.75c-3.43-8.11-5.17-16.71-5.17-25.58C105.66,280.18,107.4,271.57,110.83,263.47z
	"/>
</svg>
